<?xml version="1.0" encoding="UTF-8"?>
<svg id="Layer_2" data-name="Layer 2" xmlns="http://www.w3.org/2000/svg" viewBox="0 0 124.81 124.68">
  <defs>
    <style>
      .cls-1 {
        fill: #fff;
      }
    </style>
  </defs>
  <g id="Layer_1-2" data-name="Layer 1">
    <g>
      <path class="cls-1" d="M17.06,.15L4.77,.04,0,82.55v42.13H4.19l12.19-46.31-5.88-30.22c2.59-5.51,5.71-13.78,7.04-24.23,1.24-9.74,.5-17.98-.48-23.77Z"/>
      <path class="cls-1" d="M37.28,0l3.36,.03,3.33,46.56,16.65,17.08c-2.43,5.7-6.04,12.71-11.42,20.05-4.36,5.95-8.83,10.67-12.78,14.32-2.04,5.21-4.07,10.42-6.11,15.63l3,10.97H15.27c2.48-5.93,4.93-12.35,7.26-19.24,2.28-6.77,4.19-13.25,5.79-19.37,6.3-9.4,12.61-18.8,18.91-28.21L23.2,31.47,37.28,0Z"/>
      <polygon class="cls-1" points="63.75 0 80.12 .14 79.7 48.26 86.46 98.46 80.71 114.12 84.73 124.63 74.45 124.54 66.89 111.38 71.14 96.45 63.75 0"/>
      <path class="cls-1" d="M92.95,.05h18.92l3.35,53.14c2.04,4.11,4.11,9.05,5.81,14.78,2.56,8.61,3.5,16.34,3.77,22.45v34.26h-14.25l-8.9-40.92L92.95,.05Z"/>
    </g>
  </g>
</svg>